<svg xmlns="http://www.w3.org/2000/svg" viewBox="0 0 80 66.728">
    <defs>
        <style>
            .cls-1{fill:#d9dde6}.cls-2{fill:#fff}
        </style>
    </defs>
    <g id="Symbol_7_1" data-name="Symbol 7 – 1" transform="translate(-560 -168)">
        <path id="Subtraction_1" d="M-339.762 67.727a39.893 39.893 0 0 1-7.5-12.167A39.817 39.817 0 0 1-350 41a39.749 39.749 0 0 1 3.143-15.57 39.868 39.868 0 0 1 8.573-12.715 39.867 39.867 0 0 1 12.715-8.572A39.749 39.749 0 0 1-310 1a39.748 39.748 0 0 1 15.57 3.143 39.866 39.866 0 0 1 12.714 8.572 39.867 39.867 0 0 1 8.572 12.715A39.75 39.75 0 0 1-270 41a39.818 39.818 0 0 1-2.732 14.559 39.865 39.865 0 0 1-7.505 12.166A33.2 33.2 0 0 0-310 49a33.2 33.2 0 0 0-29.762 18.726z" class="cls-1" data-name="Subtraction 1" transform="translate(910 167)"/>
        <circle id="Ellipse_5" cx="16.5" cy="16.5" r="16.5" class="cls-2" data-name="Ellipse 5" transform="translate(584 176)"/>
    </g>
</svg>
